<?xml version="1.0" encoding="UTF-8"?>
<svg xmlns="http://www.w3.org/2000/svg" viewBox="0 0 1000 500">
  <!-- Simplified World Map with ISO 3166-1 alpha-2 country codes as IDs -->
  <!-- North America -->
  <path id="CA" d="M180,80 L280,80 L300,120 L280,160 L200,180 L150,150 L140,100 Z" />
  <path id="US" d="M150,160 L280,160 L290,220 L240,240 L150,230 L130,190 Z" />
  <path id="MX" d="M130,230 L200,240 L210,280 L170,300 L120,280 Z" />

  <!-- Central America & Caribbean -->
  <path id="GT" d="M175,285 L195,285 L195,300 L175,300 Z" />
  <path id="BZ" d="M195,280 L205,280 L205,290 L195,290 Z" />
  <path id="HN" d="M195,295 L215,295 L215,305 L195,305 Z" />
  <path id="SV" d="M180,300 L195,300 L195,308 L180,308 Z" />
  <path id="NI" d="M200,305 L220,305 L220,320 L200,320 Z" />
  <path id="CR" d="M205,320 L220,320 L220,335 L205,335 Z" />
  <path id="PA" d="M220,330 L245,330 L245,345 L220,345 Z" />
  <path id="CU" d="M210,250 L260,250 L260,265 L210,265 Z" />
  <path id="JM" d="M235,270 L250,270 L250,280 L235,280 Z" />
  <path id="HT" d="M260,265 L280,265 L280,280 L260,280 Z" />
  <path id="DO" d="M280,265 L300,265 L300,280 L280,280 Z" />
  <path id="PR" d="M305,270 L320,270 L320,280 L305,280 Z" />

  <!-- South America -->
  <path id="CO" d="M230,320 L280,310 L290,360 L250,380 L220,350 Z" />
  <path id="VE" d="M280,300 L330,290 L340,330 L290,340 Z" />
  <path id="GY" d="M330,310 L350,300 L360,330 L340,340 Z" />
  <path id="SR" d="M350,305 L370,300 L375,325 L355,330 Z" />
  <path id="EC" d="M210,350 L250,350 L250,390 L210,390 Z" />
  <path id="PE" d="M210,390 L270,380 L280,460 L220,470 L200,420 Z" />
  <path id="BR" d="M270,330 L380,320 L400,420 L340,500 L270,480 L260,400 Z" />
  <path id="BO" d="M260,420 L300,410 L310,470 L270,480 Z" />
  <path id="PY" d="M300,450 L340,440 L345,480 L305,485 Z" />
  <path id="CL" d="M250,470 L270,470 L280,600 L260,600 Z" />
  <path id="AR" d="M270,480 L330,470 L340,580 L280,590 Z" />
  <path id="UY" d="M330,490 L355,485 L360,510 L335,515 Z" />

  <!-- Europe -->
  <path id="IS" d="M400,60 L440,55 L445,80 L405,85 Z" />
  <path id="NO" d="M480,50 L510,40 L520,120 L490,130 L475,80 Z" />
  <path id="SE" d="M500,60 L530,55 L540,140 L510,145 L495,90 Z" />
  <path id="FI" d="M540,50 L580,45 L585,110 L545,115 Z" />
  <path id="GB" d="M440,100 L465,95 L470,140 L445,145 Z" />
  <path id="IE" d="M420,110 L440,108 L442,135 L422,137 Z" />
  <path id="PT" d="M420,170 L435,168 L437,200 L422,202 Z" />
  <path id="ES" d="M435,165 L480,160 L485,200 L440,205 Z" />
  <path id="FR" d="M450,140 L500,135 L505,175 L455,180 Z" />
  <path id="BE" d="M470,130 L485,128 L487,142 L472,144 Z" />
  <path id="NL" d="M475,118 L492,116 L494,130 L477,132 Z" />
  <path id="DE" d="M490,115 L540,110 L545,160 L495,165 Z" />
  <path id="CH" d="M480,158 L505,155 L507,172 L482,175 Z" />
  <path id="AT" d="M510,155 L545,152 L547,170 L512,173 Z" />
  <path id="IT" d="M495,175 L530,170 L540,220 L505,225 Z" />
  <path id="PL" d="M530,115 L580,110 L585,150 L535,155 Z" />
  <path id="CZ" d="M515,140 L545,138 L547,155 L517,157 Z" />
  <path id="SK" d="M545,145 L575,143 L577,158 L547,160 Z" />
  <path id="HU" d="M535,160 L570,157 L573,178 L538,181 Z" />
  <path id="RO" d="M560,165 L600,160 L605,190 L565,195 Z" />
  <path id="BG" d="M565,190 L595,187 L598,210 L568,213 Z" />
  <path id="GR" d="M550,210 L580,205 L585,245 L555,250 Z" />
  <path id="UA" d="M580,120 L650,110 L660,165 L590,175 Z" />
  <path id="BY" d="M565,105 L600,100 L605,130 L570,135 Z" />
  <path id="LT" d="M550,95 L575,92 L578,110 L553,113 Z" />
  <path id="LV" d="M550,82 L578,79 L580,95 L552,98 Z" />
  <path id="EE" d="M548,68 L575,65 L577,82 L550,85 Z" />
  <path id="DK" d="M490,95 L510,93 L512,115 L492,117 Z" />
  <path id="RS" d="M545,178 L570,175 L573,200 L548,203 Z" />
  <path id="HR" d="M525,170 L550,167 L553,188 L528,191 Z" />
  <path id="BA" d="M530,185 L548,183 L550,200 L532,202 Z" />
  <path id="SI" d="M520,165 L538,163 L540,175 L522,177 Z" />
  <path id="ME" d="M540,198 L555,196 L557,210 L542,212 Z" />
  <path id="AL" d="M548,208 L562,206 L564,228 L550,230 Z" />
  <path id="MK" d="M555,200 L572,198 L574,215 L557,217 Z" />

  <!-- Russia & Central Asia -->
  <path id="RU" d="M580,40 L950,30 L960,180 L750,200 L650,170 L600,100 Z" />
  <path id="KZ" d="M650,140 L750,130 L760,190 L660,200 Z" />
  <path id="UZ" d="M660,190 L710,185 L715,220 L665,225 Z" />
  <path id="TM" d="M640,210 L680,205 L685,240 L645,245 Z" />
  <path id="KG" d="M710,195 L745,190 L748,215 L713,220 Z" />
  <path id="TJ" d="M705,220 L735,215 L738,245 L708,250 Z" />

  <!-- Middle East -->
  <path id="TR" d="M560,175 L640,170 L645,205 L565,210 Z" />
  <path id="SY" d="M610,210 L640,207 L643,235 L613,238 Z" />
  <path id="IQ" d="M620,235 L660,230 L665,275 L625,280 Z" />
  <path id="IR" d="M660,220 L720,210 L730,290 L670,300 Z" />
  <path id="SA" d="M600,270 L680,260 L700,340 L620,350 Z" />
  <path id="YE" d="M620,340 L670,335 L675,365 L625,370 Z" />
  <path id="OM" d="M680,320 L710,315 L715,360 L685,365 Z" />
  <path id="AE" d="M680,305 L710,300 L712,320 L682,325 Z" />
  <path id="QA" d="M670,300 L682,298 L683,315 L671,317 Z" />
  <path id="KW" d="M650,275 L668,273 L670,290 L652,292 Z" />
  <path id="JO" d="M595,245 L620,242 L622,270 L597,273 Z" />
  <path id="IL" d="M585,245 L598,243 L600,275 L587,277 Z" />
  <path id="LB" d="M590,230 L602,228 L604,245 L592,247 Z" />
  <path id="AF" d="M720,230 L770,220 L780,270 L730,280 Z" />
  <path id="PK" d="M720,260 L780,250 L800,320 L740,330 Z" />

  <!-- South Asia -->
  <path id="IN" d="M720,290 L800,280 L820,400 L750,420 L700,360 Z" />
  <path id="NP" d="M760,290 L800,285 L802,305 L762,310 Z" />
  <path id="BT" d="M800,295 L820,293 L822,308 L802,310 Z" />
  <path id="BD" d="M810,310 L835,305 L840,340 L815,345 Z" />
  <path id="LK" d="M770,400 L790,398 L792,430 L772,432 Z" />
  <path id="MM" d="M820,300 L850,295 L860,370 L830,375 Z" />

  <!-- East Asia -->
  <path id="CN" d="M750,180 L900,160 L920,320 L800,350 L740,280 Z" />
  <path id="MN" d="M780,150 L880,140 L885,185 L785,195 Z" />
  <path id="KP" d="M890,200 L910,198 L912,230 L892,232 Z" />
  <path id="KR" d="M895,230 L915,228 L918,265 L898,267 Z" />
  <path id="JP" d="M920,200 L950,195 L960,280 L930,285 Z" />
  <path id="TW" d="M895,310 L915,308 L917,340 L897,342 Z" />
  <path id="HK" d="M875,320 L888,318 L889,330 L876,332 Z" />

  <!-- Southeast Asia -->
  <path id="TH" d="M830,340 L865,335 L875,400 L840,405 Z" />
  <path id="VN" d="M865,320 L890,315 L900,400 L875,405 Z" />
  <path id="LA" d="M850,320 L875,315 L878,355 L853,360 Z" />
  <path id="KH" d="M855,360 L885,355 L888,390 L858,395 Z" />
  <path id="MY" d="M840,400 L900,395 L910,430 L850,435 Z" />
  <path id="SG" d="M870,425 L885,423 L886,435 L871,437 Z" />
  <path id="ID" d="M840,430 L980,420 L990,480 L850,490 Z" />
  <path id="PH" d="M910,340 L940,335 L950,400 L920,405 Z" />

  <!-- Africa -->
  <path id="MA" d="M420,210 L470,205 L475,250 L425,255 Z" />
  <path id="DZ" d="M460,210 L530,200 L540,280 L470,290 Z" />
  <path id="TN" d="M500,195 L520,193 L522,225 L502,227 Z" />
  <path id="LY" d="M510,225 L570,215 L580,290 L520,300 Z" />
  <path id="EG" d="M560,230 L610,220 L620,290 L570,300 Z" />
  <path id="SD" d="M570,300 L620,290 L630,370 L580,380 Z" />
  <path id="ET" d="M600,350 L650,340 L660,400 L610,410 Z" />
  <path id="SO" d="M650,360 L680,355 L690,420 L660,425 Z" />
  <path id="KE" d="M610,400 L650,395 L655,450 L615,455 Z" />
  <path id="TZ" d="M590,440 L640,435 L645,490 L595,495 Z" />
  <path id="UG" d="M590,400 L620,397 L623,440 L593,443 Z" />
  <path id="RW" d="M580,430 L598,428 L600,445 L582,447 Z" />
  <path id="BI" d="M580,445 L598,443 L600,460 L582,462 Z" />
  <path id="CD" d="M530,380 L600,370 L610,480 L540,490 Z" />
  <path id="CG" d="M510,400 L540,397 L545,450 L515,453 Z" />
  <path id="GA" d="M490,390 L515,387 L518,420 L493,423 Z" />
  <path id="CM" d="M500,350 L540,345 L545,400 L505,405 Z" />
  <path id="NG" d="M470,330 L520,320 L530,380 L480,390 Z" />
  <path id="NE" d="M470,290 L540,280 L545,330 L475,340 Z" />
  <path id="TD" d="M530,300 L580,290 L590,370 L540,380 Z" />
  <path id="ML" d="M420,290 L480,280 L485,340 L425,350 Z" />
  <path id="MR" d="M400,270 L450,260 L455,320 L405,330 Z" />
  <path id="SN" d="M390,320 L420,317 L422,345 L392,348 Z" />
  <path id="GN" d="M400,345 L430,342 L433,370 L403,373 Z" />
  <path id="CI" d="M430,360 L470,355 L475,400 L435,405 Z" />
  <path id="GH" d="M460,360 L485,357 L488,405 L463,408 Z" />
  <path id="TG" d="M480,365 L492,363 L494,400 L482,402 Z" />
  <path id="BJ" d="M488,355 L502,353 L504,395 L490,397 Z" />
  <path id="BF" d="M450,330 L490,325 L493,360 L453,365 Z" />
  <path id="LR" d="M415,375 L440,372 L443,405 L418,408 Z" />
  <path id="SL" d="M400,365 L420,363 L422,390 L402,392 Z" />
  <path id="CF" d="M530,350 L580,345 L585,385 L535,390 Z" />
  <path id="SS" d="M580,350 L620,345 L625,395 L585,400 Z" />
  <path id="AO" d="M510,440 L560,435 L565,500 L515,505 Z" />
  <path id="ZM" d="M560,450 L610,445 L615,500 L565,505 Z" />
  <path id="ZW" d="M575,490 L615,485 L620,525 L580,530 Z" />
  <path id="MW" d="M600,470 L620,468 L623,510 L603,512 Z" />
  <path id="MZ" d="M610,480 L650,475 L660,550 L620,555 Z" />
  <path id="NA" d="M510,500 L560,495 L565,570 L515,575 Z" />
  <path id="BW" d="M550,510 L590,505 L595,560 L555,565 Z" />
  <path id="ZA" d="M530,555 L610,545 L620,610 L540,620 Z" />
  <path id="SZ" d="M595,545 L610,543 L612,560 L597,562 Z" />
  <path id="LS" d="M575,570 L595,568 L597,590 L577,592 Z" />
  <path id="MG" d="M640,480 L680,475 L690,560 L650,565 Z" />

  <!-- Oceania -->
  <path id="AU" d="M840,480 L960,460 L980,580 L860,600 Z" />
  <path id="NZ" d="M970,560 L995,555 L1000,610 L975,615 Z" />
  <path id="PG" d="M920,420 L970,415 L975,460 L925,465 Z" />
  <path id="FJ" d="M995,500 L1010,498 L1012,520 L997,522 Z" />
</svg>
